<?xml version="1.0" standalone="no"?>
<!DOCTYPE svg PUBLIC "-//W3C//DTD SVG 20010904//EN"
 "http://www.w3.org/TR/2001/REC-SVG-20010904/DTD/svg10.dtd">
<svg version="1.0" xmlns="http://www.w3.org/2000/svg"
 width="136.000000pt" height="136.000000pt" viewBox="0 0 136.000000 136.000000"
 preserveAspectRatio="xMidYMid meet">

<g transform="translate(0.000000,136.000000) scale(0.100000,-0.100000)"
fill="#000000" stroke="none">
<path d="M665 860 c-28 -29 -30 -30 -37 -10 -7 20 -9 20 -37 5 -30 -15 -47
-47 -36 -66 4 -6 13 -8 21 -5 12 4 12 2 4 -14 -6 -11 -15 -20 -21 -20 -6 0 -9
-6 -6 -12 2 -7 10 -12 17 -10 7 1 33 -17 59 -40 25 -24 67 -54 94 -68 35 -19
47 -31 47 -48 0 -118 177 -141 209 -27 27 101 -89 176 -169 109 -29 -25 -50
-28 -35 -5 10 17 81 51 105 51 26 0 57 -16 88 -43 34 -32 26 -3 -10 32 -38 37
-80 47 -136 31 -48 -12 -82 -1 -82 29 0 24 -37 71 -56 71 -19 0 -18 7 6 33 18
18 23 20 41 9 18 -12 20 -11 17 5 -6 31 -50 28 -83 -7z m257 -211 c28 -15 50
-72 39 -101 -24 -64 -99 -81 -146 -33 -67 66 22 179 107 134z"/>
<path d="M826 621 c-25 -28 -17 -79 16 -104 68 -51 143 46 82 107 -22 22 -77
20 -98 -3z m78 -38 c9 -21 -16 -46 -37 -37 -17 6 -23 35 -10 47 12 13 41 7 47
-10z"/>
<path d="M408 721 c-48 -43 -48 -109 0 -152 58 -52 138 -34 169 38 43 104 -85
189 -169 114z m128 -15 c59 -50 22 -146 -56 -146 -82 0 -118 94 -58 150 30 27
80 26 114 -4z"/>
<path d="M460 712 c-50 -16 -67 -83 -30 -117 44 -40 120 -9 120 49 0 45 -48
81 -90 68z m45 -67 c0 -22 -31 -33 -47 -17 -17 17 -1 44 24 40 15 -2 23 -10
23 -23z"/>
</g>
</svg>
